<?xml version="1.0" encoding="UTF-8" standalone="no"?>
<!DOCTYPE svg PUBLIC "-//W3C//DTD SVG 1.1//EN" "http://www.w3.org/Graphics/SVG/1.1/DTD/svg11.dtd">
<svg width="100%" height="100%" viewBox="0 0 500 500" version="1.1" xmlns="http://www.w3.org/2000/svg" xmlns:xlink="http://www.w3.org/1999/xlink" xml:space="preserve" xmlns:serif="http://www.serif.com/" style="fill-rule:evenodd;clip-rule:evenodd;stroke-linecap:round;stroke-linejoin:round;stroke-miterlimit:1.5;">
    <rect id="Artboard1" x="0" y="0" width="500" height="500" style="fill:none;"/>
    <g id="Artboard11" serif:id="Artboard1">
        <g transform="matrix(0.920437,0,0,0.920437,19.890649,19.890649)">
            <path d="M500,112.319L500,387.681C500,449.672 449.672,500 387.681,500L112.319,500C50.328,500 0,449.672 0,387.681L0,112.319C0,50.328 50.328,0 112.319,0L387.681,0C449.672,0 500,50.328 500,112.319Z" style="fill:rgb(159,222,90);"/>
        </g>
        <g transform="matrix(0.972102,0,0,0.972102,6.974537,6.974537)">
            <path d="M500,112.319L500,387.681C500,449.672 449.672,500 387.681,500L112.319,500C50.328,500 0,449.672 0,387.681L0,112.319C0,50.328 50.328,0 112.319,0L387.681,0C449.672,0 500,50.328 500,112.319Z" style="fill:none;stroke:rgb(159,222,90);stroke-width:10.72px;"/>
        </g>
        <g transform="matrix(4.240133,0,0,4.240133,-1507.935946,-199.994747)">
            <rect x="440.918" y="79.797" width="5.856" height="5.856" style="fill:rgb(219,215,252);"/>
        </g>
        <g transform="matrix(4.240133,0,0,4.240133,-1507.935946,-199.994747)">
            <rect x="435.072" y="85.653" width="5.845" height="5.845" style="fill:rgb(219,215,252);"/>
        </g>
        <g transform="matrix(4.240133,0,0,4.240133,-1507.935946,-199.994747)">
            <rect x="429.216" y="91.498" width="5.856" height="5.856" style="fill:rgb(219,215,252);"/>
        </g>
        <g transform="matrix(4.240133,0,0,4.240133,-1507.935946,-199.994747)">
            <rect x="423.371" y="97.354" width="5.845" height="5.845" style="fill:rgb(219,215,252);"/>
        </g>
        <g transform="matrix(4.240133,0,0,4.240133,-1507.935946,-199.994747)">
            <rect x="417.515" y="103.2" width="5.856" height="5.856" style="fill:rgb(219,215,252);"/>
        </g>
        <g transform="matrix(4.240133,0,0,4.240133,-1507.935946,-199.994747)">
            <rect x="411.67" y="109.056" width="5.845" height="5.845" style="fill:rgb(219,215,252);"/>
        </g>
        <g transform="matrix(4.240133,0,0,4.240133,-1507.935946,-199.994747)">
            <path d="M446.774,73.952L435.072,73.952L435.072,85.653L440.918,85.653L440.918,79.797L446.774,79.797L446.774,73.952Z" style="fill:rgb(234,232,252);fill-rule:nonzero;"/>
        </g>
        <g transform="matrix(4.240133,0,0,4.240133,-1507.935946,-199.994747)">
            <rect x="429.216" y="85.653" width="5.856" height="5.845" style="fill:rgb(234,232,252);"/>
        </g>
        <g transform="matrix(4.240133,0,0,4.240133,-1507.935946,-199.994747)">
            <rect x="423.371" y="91.498" width="5.845" height="5.856" style="fill:rgb(234,232,252);"/>
        </g>
        <g transform="matrix(4.240133,0,0,4.240133,-1507.935946,-199.994747)">
            <rect x="417.515" y="97.354" width="5.856" height="5.845" style="fill:rgb(234,232,252);"/>
        </g>
        <g transform="matrix(4.240133,0,0,4.240133,-1507.935946,-199.994747)">
            <path d="M405.824,103.2L405.824,114.901L411.67,114.901L411.67,109.056L417.515,109.056L417.515,103.2L405.824,103.2Z" style="fill:rgb(234,232,252);fill-rule:nonzero;"/>
        </g>
        <g transform="matrix(4.240133,0,0,4.240133,-1507.935946,-199.994747)">
            <rect x="399.968" y="114.901" width="5.856" height="5.856" style="fill:rgb(255,211,147);"/>
        </g>
        <g transform="matrix(4.240133,0,0,4.240133,-1507.935946,-199.994747)">
            <rect x="429.216" y="79.797" width="5.856" height="5.856" style="fill:white;"/>
        </g>
        <g transform="matrix(4.240133,0,0,4.240133,-1507.935946,-199.994747)">
            <rect x="423.371" y="85.653" width="5.845" height="5.845" style="fill:white;"/>
        </g>
        <g transform="matrix(4.240133,0,0,4.240133,-1507.935946,-199.994747)">
            <rect x="417.515" y="91.498" width="5.856" height="5.856" style="fill:white;"/>
        </g>
        <g transform="matrix(4.240133,0,0,4.240133,-1507.935946,-199.994747)">
            <rect x="411.67" y="97.354" width="5.845" height="5.845" style="fill:white;"/>
        </g>
        <g transform="matrix(4.240133,0,0,4.240133,-1507.935946,-199.994747)">
            <rect x="399.968" y="103.2" width="5.856" height="5.856" style="fill:white;"/>
        </g>
        <g transform="matrix(4.240133,0,0,4.240133,-1507.935946,-199.994747)">
            <rect x="388.267" y="97.354" width="5.856" height="5.845" style="fill:rgb(212,134,119);"/>
        </g>
        <g transform="matrix(4.240133,0,0,4.240133,-1507.935946,-199.994747)">
            <path d="M411.67,126.603L411.67,138.304L417.515,138.304L417.515,126.603L411.67,126.603Z" style="fill:rgb(161,82,66);fill-rule:nonzero;"/>
        </g>
        <g transform="matrix(4.240133,0,0,4.240133,-1507.935946,-199.994747)">
            <path d="M411.67,120.757L394.123,120.757L394.123,126.603L411.67,126.603L411.67,120.757Z" style="fill:rgb(161,82,66);fill-rule:nonzero;"/>
        </g>
        <g transform="matrix(4.240133,0,0,4.240133,-1507.935946,-199.994747)">
            <rect x="388.267" y="126.603" width="5.856" height="5.845" style="fill:rgb(161,82,66);"/>
        </g>
        <g transform="matrix(4.240133,0,0,4.240133,-1507.935946,-199.994747)">
            <rect x="388.267" y="103.2" width="5.856" height="5.856" style="fill:rgb(161,82,66);"/>
        </g>
        <g transform="matrix(4.240133,0,0,4.240133,-1507.935946,-199.994747)">
            <rect x="382.421" y="132.448" width="5.845" height="5.856" style="fill:rgb(161,82,66);"/>
        </g>
        <g transform="matrix(4.240133,0,0,4.240133,-1507.935946,-199.994747)">
            <rect x="417.515" y="126.603" width="5.856" height="5.845" style="fill:rgb(196,117,101);"/>
        </g>
        <g transform="matrix(4.240133,0,0,4.240133,-1507.935946,-199.994747)">
            <rect x="405.824" y="114.901" width="5.845" height="5.856" style="fill:rgb(196,117,101);"/>
        </g>
        <g transform="matrix(4.240133,0,0,4.240133,-1507.935946,-199.994747)">
            <path d="M405.824,109.056L394.123,109.056L394.123,120.757L399.968,120.757L399.968,114.901L405.824,114.901L405.824,109.056Z" style="fill:rgb(196,117,101);fill-rule:nonzero;"/>
        </g>
        <g transform="matrix(4.240133,0,0,4.240133,-1507.935946,-199.994747)">
            <rect x="382.421" y="103.2" width="5.845" height="5.856" style="fill:rgb(196,117,101);"/>
        </g>
        <g transform="matrix(4.240133,0,0,4.240133,-1507.935946,-199.994747)">
            <rect x="440.918" y="85.653" width="5.856" height="5.845" style="fill:rgb(71,61,97);"/>
        </g>
        <g transform="matrix(4.240133,0,0,4.240133,-1507.935946,-199.994747)">
            <path d="M452.624,68.106L435.072,68.106L435.072,73.952L446.774,73.952L446.774,85.653L452.619,85.653L452.619,73.952L452.624,73.952L452.624,68.106Z" style="fill:rgb(71,61,97);fill-rule:nonzero;"/>
        </g>
        <g transform="matrix(4.240133,0,0,4.240133,-1507.935946,-199.994747)">
            <rect x="435.072" y="91.498" width="5.845" height="5.856" style="fill:rgb(71,61,97);"/>
        </g>
        <g transform="matrix(4.240133,0,0,4.240133,-1507.935946,-199.994747)">
            <rect x="429.216" y="97.354" width="5.856" height="5.845" style="fill:rgb(71,61,97);"/>
        </g>
        <g transform="matrix(4.240133,0,0,4.240133,-1507.935946,-199.994747)">
            <rect x="429.216" y="73.952" width="5.856" height="5.845" style="fill:rgb(71,61,97);"/>
        </g>
        <g transform="matrix(4.240133,0,0,4.240133,-1507.935946,-199.994747)">
            <rect x="423.371" y="103.2" width="5.845" height="5.856" style="fill:rgb(71,61,97);"/>
        </g>
        <g transform="matrix(4.240133,0,0,4.240133,-1507.935946,-199.994747)">
            <rect x="423.371" y="79.797" width="5.845" height="5.856" style="fill:rgb(71,61,97);"/>
        </g>
        <g transform="matrix(4.240133,0,0,4.240133,-1507.935946,-199.994747)">
            <rect x="417.515" y="132.448" width="5.856" height="5.856" style="fill:rgb(71,61,97);"/>
        </g>
        <g transform="matrix(4.240133,0,0,4.240133,-1507.935946,-199.994747)">
            <rect x="417.515" y="109.056" width="5.856" height="5.845" style="fill:rgb(71,61,97);"/>
        </g>
        <g transform="matrix(4.240133,0,0,4.240133,-1507.935946,-199.994747)">
            <rect x="417.515" y="85.653" width="5.856" height="5.845" style="fill:rgb(71,61,97);"/>
        </g>
        <g transform="matrix(4.240133,0,0,4.240133,-1507.935946,-199.994747)">
            <rect x="411.67" y="138.304" width="5.845" height="5.845" style="fill:rgb(71,61,97);"/>
        </g>
        <g transform="matrix(4.240133,0,0,4.240133,-1507.935946,-199.994747)">
            <path d="M411.67,114.901L411.67,126.603L423.371,126.603L423.371,132.448L429.216,132.448L429.216,120.757L417.515,120.757L417.515,114.901L411.67,114.901Z" style="fill:rgb(71,61,97);fill-rule:nonzero;"/>
        </g>
        <g transform="matrix(4.240133,0,0,4.240133,-1507.935946,-199.994747)">
            <rect x="411.67" y="91.498" width="5.845" height="5.856" style="fill:rgb(71,61,97);"/>
        </g>
        <g transform="matrix(4.240133,0,0,4.240133,-1507.935946,-199.994747)">
            <path d="M411.67,126.603L394.123,126.603L394.123,132.448L405.824,132.448L405.824,138.304L411.67,138.304L411.67,126.603Z" style="fill:rgb(71,61,97);fill-rule:nonzero;"/>
        </g>
        <g transform="matrix(4.240133,0,0,4.240133,-1507.935946,-199.994747)">
            <rect x="405.824" y="97.354" width="5.845" height="5.845" style="fill:rgb(71,61,97);"/>
        </g>
        <g transform="matrix(4.240133,0,0,4.240133,-1507.935946,-199.994747)">
            <path d="M394.123,109.056L405.824,109.056L405.824,103.2L399.968,103.2L399.968,97.354L394.123,97.354L394.123,109.056Z" style="fill:rgb(71,61,97);fill-rule:nonzero;"/>
        </g>
        <g transform="matrix(4.240133,0,0,4.240133,-1507.935946,-199.994747)">
            <rect x="388.267" y="132.448" width="5.856" height="5.856" style="fill:rgb(71,61,97);"/>
        </g>
        <g transform="matrix(4.240133,0,0,4.240133,-1507.935946,-199.994747)">
            <path d="M394.123,126.603L394.123,109.056L382.421,109.056L382.421,114.901L388.267,114.901L388.267,126.603L394.123,126.603Z" style="fill:rgb(71,61,97);fill-rule:nonzero;"/>
        </g>
        <g transform="matrix(4.240133,0,0,4.240133,-1507.935946,-199.994747)">
            <rect x="388.267" y="91.498" width="5.856" height="5.856" style="fill:rgb(71,61,97);"/>
        </g>
        <g transform="matrix(4.240133,0,0,4.240133,-1507.935946,-199.994747)">
            <rect x="382.421" y="138.304" width="5.845" height="5.845" style="fill:rgb(71,61,97);"/>
        </g>
        <g transform="matrix(4.240133,0,0,4.240133,-1507.935946,-199.994747)">
            <rect x="382.421" y="126.603" width="5.845" height="5.845" style="fill:rgb(71,61,97);"/>
        </g>
        <g transform="matrix(4.240133,0,0,4.240133,-1507.935946,-199.994747)">
            <rect x="382.421" y="97.354" width="5.845" height="5.845" style="fill:rgb(71,61,97);"/>
        </g>
        <g transform="matrix(4.240133,0,0,4.240133,-1507.935946,-199.994747)">
            <rect x="376.565" y="132.448" width="5.856" height="5.856" style="fill:rgb(71,61,97);"/>
        </g>
        <g transform="matrix(4.240133,0,0,4.240133,-1507.935946,-199.994747)">
            <rect x="376.565" y="103.2" width="5.856" height="5.856" style="fill:rgb(71,61,97);"/>
        </g>
    </g>
</svg>
