<svg width="357" height="357" viewBox="0 0 357 357" fill="none" xmlns="http://www.w3.org/2000/svg">
<rect width="357" height="357" rx="36" fill="#FF715B"/>
<path d="M142.4 184.4C142.4 175.2 140.333 167.867 136.2 162.4C132.067 156.8 125.933 154 117.8 154C115.133 154 112.667 154.133 110.4 154.4C108.133 154.533 106.267 154.733 104.8 155V208.8C106.667 210 109.067 211 112 211.8C115.067 212.6 118.133 213 121.2 213C135.333 213 142.4 203.467 142.4 184.4ZM172.8 183.6C172.8 191.733 171.8 199.133 169.8 205.8C167.8 212.467 164.867 218.2 161 223C157.133 227.8 152.333 231.533 146.6 234.2C140.867 236.867 134.267 238.2 126.8 238.2C122.667 238.2 118.8 237.8 115.2 237C111.6 236.2 108.133 235.067 104.8 233.6V273.2H75V134.6C77.6667 133.8 80.7333 133.067 84.2 132.4C87.6667 131.6 91.2667 130.933 95 130.4C98.8667 129.867 102.733 129.467 106.6 129.2C110.6 128.8 114.4 128.6 118 128.6C126.667 128.6 134.4 129.933 141.2 132.6C148 135.133 153.733 138.8 158.4 143.6C163.067 148.267 166.6 154 169 160.8C171.533 167.6 172.8 175.2 172.8 183.6Z" fill="white"/>
<path d="M225.503 236.2H195.703V131H225.503V236.2ZM228.303 100.6C228.303 106.067 226.503 110.4 222.903 113.6C219.436 116.667 215.303 118.2 210.503 118.2C205.703 118.2 201.503 116.667 197.903 113.6C194.436 110.4 192.703 106.067 192.703 100.6C192.703 95.1333 194.436 90.8667 197.903 87.8C201.503 84.6 205.703 83 210.503 83C215.303 83 219.436 84.6 222.903 87.8C226.503 90.8667 228.303 95.1333 228.303 100.6Z" fill="white"/>
<path d="M282.716 220.4C282.716 226.4 280.782 231 276.916 234.2C273.182 237.267 268.916 238.8 264.116 238.8C259.316 238.8 254.982 237.267 251.116 234.2C247.382 231 245.516 226.4 245.516 220.4C245.516 214.4 247.382 209.867 251.116 206.8C254.982 203.6 259.316 202 264.116 202C268.916 202 273.182 203.6 276.916 206.8C280.782 209.867 282.716 214.4 282.716 220.4Z" fill="white"/>
</svg>
